<svg xmlns="http://www.w3.org/2000/svg" enable-background="new 0 0 24 24" viewBox="0 0 24 24" id="scribd"><path fill="#1A818B" d="M18.412 7.248l2.562-3.662c-1.395-1.096-4.348-3.665-9.351-3.584-4.668 0-8.484 2.677-8.484 7.774.005 1.726.442 3.092 1.259 4.057 1.501 1.813 4.343 1.925 5.825.427 1.213-1.233 1.376-3.433.036-4.667-.706-.679-1.65-.978-2.831-.71C6.544 7.142 5.975 7.041 5.975 6.091c0-2.488 3.095-3.91 5.668-3.869 2.213-.036 4.39.598 6.242 1.817l-1.365 1.96L18.412 7.248 18.412 7.248zM12.708 24c2.608 0 4.791-.533 6.779-2.239 2.898-2.609 2.751-7.576 1.031-9.628h.001c-.787-.954-1.974-1.493-3.207-1.452-1.933-.102-3.608 1.421-3.578 3.412-.036.854.304 1.676.933 2.25.716.706 1.675 1 2.857.731.883-.259 1.452-.156 1.452.792 0 .218-.025.431-.071.644-.848 2.077-3.02 3.271-6.161 3.271-2.634.01-5.196-.833-7.312-2.402l1.71-2.001-1.807-1.391L2.25 19.634l.782.7C5.696 22.711 9.141 24.015 12.708 24L12.708 24z"></path><path fill="#177079" d="M11.853 0C11.776 0 11.7 0 11.623.002c-4.668 0-8.484 2.677-8.484 7.774.005 1.726.442 3.092 1.259 4.057.812.98 2.015 1.464 3.184 1.464.993 0 1.96-.349 2.641-1.037 1.213-1.233 1.376-3.433.036-4.667-.532-.512-1.198-.808-2-.808-.263 0-.54.032-.831.098-.264.077-.5.123-.701.123-.471 0-.75-.249-.75-.915 0-2.453 3.008-3.87 5.558-3.87.037 0 .073 0 .11.001.06-.001.12-.001.18-.001.059 0 .118 0 .177.001V.001C11.951 0 11.902 0 11.853 0L11.853 0zM5.335 15.987L2.25 19.634l.782.7c2.487 2.219 5.656 3.503 8.968 3.651V21.76c-2.37-.136-4.652-.961-6.568-2.382l1.71-2.001L5.335 15.987 5.335 15.987z"></path></svg>